<?xml version="1.0" standalone="no"?>
<!DOCTYPE svg PUBLIC "-//W3C//DTD SVG 20010904//EN"
 "http://www.w3.org/TR/2001/REC-SVG-20010904/DTD/svg10.dtd">
<svg version="1.0" xmlns="http://www.w3.org/2000/svg"
 width="1280.000000pt" height="1280.000000pt" viewBox="0 0 1280.000000 1280.000000"
 preserveAspectRatio="xMidYMid meet">

<g transform="translate(0.000000,1280.000000) scale(0.100000,-0.100000)"
fill="#000000" stroke="none">
<path d="M4065 11743 c-155 -10 -296 -27 -425 -53 -141 -29 -446 -117 -504
-147 -16 -8 -56 -24 -90 -35 -151 -49 -658 -342 -733 -424 -12 -13 -25 -24
-29 -24 -12 0 -109 -84 -179 -155 -39 -39 -78 -74 -87 -77 -9 -4 -29 -24 -44
-45 -16 -21 -50 -58 -76 -83 -26 -25 -69 -74 -97 -110 -27 -36 -63 -78 -79
-95 -48 -48 -233 -339 -309 -485 -154 -293 -267 -629 -323 -961 -40 -238 -42
-368 -38 -2774 4 -2304 4 -2310 25 -2445 37 -231 67 -350 155 -620 42 -127
160 -396 202 -461 13 -19 38 -62 54 -95 39 -78 220 -344 238 -351 8 -3 14 -9
14 -15 0 -15 105 -140 154 -183 25 -22 46 -45 46 -52 0 -6 21 -29 47 -50 54
-43 133 -120 134 -131 0 -6 98 -87 267 -220 37 -29 96 -67 132 -85 35 -17 74
-41 86 -52 32 -30 239 -135 409 -208 280 -120 541 -191 850 -234 108 -15 347
-17 2430 -20 1626 -3 2354 -1 2460 7 461 34 874 152 1274 363 95 51 176 98
178 104 3 7 11 13 19 13 19 0 253 159 267 182 7 10 17 18 23 18 6 0 22 12 37
28 33 35 54 52 64 52 7 0 50 41 176 167 124 123 176 180 194 208 19 32 37 54
89 108 38 39 169 233 178 265 4 12 11 22 16 22 11 0 165 285 180 335 7 22 16
42 20 45 37 26 186 489 219 680 5 30 20 82 33 115 l23 60 3 2380 c3 2414 1
2566 -34 2798 -53 354 -174 722 -339 1032 -47 88 -91 165 -98 170 -7 6 -18 23
-25 39 -20 44 -162 247 -178 253 -8 3 -14 11 -14 19 0 7 -18 32 -40 55 -22 23
-40 45 -40 48 0 3 -27 33 -60 66 -32 33 -81 82 -107 108 -26 27 -79 78 -118
113 -38 36 -81 75 -95 88 -14 13 -40 33 -58 44 -19 11 -40 29 -48 41 -8 11
-68 55 -132 97 -64 42 -135 90 -158 105 -59 40 -407 215 -467 235 -29 9 -90
31 -137 49 -125 48 -460 133 -623 158 -142 21 -146 21 -2502 22 -1298 1 -2382
0 -2410 -2z m4813 -1108 c160 -20 458 -122 635 -216 137 -73 333 -202 351
-231 6 -10 15 -18 20 -18 14 0 116 -97 198 -189 43 -47 86 -95 96 -106 32 -34
128 -168 171 -238 151 -247 266 -571 291 -824 8 -76 10 -820 8 -2493 -3 -2137
-5 -2391 -20 -2445 -8 -33 -27 -104 -41 -158 -36 -137 -115 -334 -182 -458
-64 -117 -175 -283 -211 -316 -13 -12 -24 -26 -24 -32 0 -14 -218 -229 -262
-259 -21 -13 -38 -28 -38 -33 0 -13 -184 -138 -304 -206 -138 -79 -287 -141
-446 -187 -267 -76 -26 -69 -2645 -73 -1555 -3 -2393 -1 -2476 6 -81 7 -155
19 -205 35 -44 14 -106 31 -139 39 -97 23 -281 99 -400 164 -120 65 -313 197
-322 219 -3 8 -11 14 -19 14 -18 0 -251 235 -270 272 -8 15 -18 28 -22 28 -15
0 -139 175 -199 280 -136 239 -237 539 -263 782 -13 129 -14 4705 0 4835 19
185 119 497 220 688 57 108 222 355 238 355 6 0 12 5 12 11 0 18 101 128 185
201 44 38 100 87 125 109 72 64 243 174 369 238 117 59 301 133 363 146 18 3
67 17 109 31 158 51 37 49 2590 46 2010 -2 2412 -5 2507 -17z"/>
<path d="M8957 9599 c-105 -15 -256 -93 -272 -141 -3 -9 -17 -23 -30 -32 -14
-9 -25 -25 -25 -36 0 -11 -9 -24 -19 -29 -10 -6 -34 -46 -52 -88 -61 -146 -50
-342 29 -472 75 -125 192 -219 322 -261 61 -20 85 -22 173 -17 226 12 382 114
479 315 41 84 42 91 46 205 4 102 2 126 -18 188 -39 122 -135 246 -219 284
-23 10 -41 22 -41 26 0 24 -183 70 -267 68 -26 -1 -74 -5 -106 -10z"/>
<path d="M6300 9100 c-58 -5 -141 -16 -185 -24 -165 -30 -202 -38 -285 -55
-47 -10 -110 -26 -140 -35 -30 -9 -75 -22 -100 -28 -115 -27 -371 -139 -520
-228 -130 -76 -341 -226 -382 -271 -15 -16 -30 -29 -33 -29 -13 0 -65 -45 -65
-56 0 -7 -9 -15 -19 -19 -18 -5 -57 -46 -149 -152 -20 -24 -53 -60 -73 -80
-50 -52 -145 -180 -229 -310 -105 -160 -190 -342 -255 -543 -31 -96 -63 -187
-71 -202 -8 -15 -21 -74 -28 -130 -8 -57 -24 -134 -35 -173 -28 -93 -40 -271
-30 -435 7 -121 32 -301 44 -320 3 -4 11 -53 20 -108 8 -55 19 -112 25 -126 5
-15 17 -56 25 -93 43 -187 194 -525 317 -714 93 -142 211 -299 226 -299 6 0
12 -6 12 -12 1 -17 46 -68 60 -68 5 0 10 -6 10 -14 0 -12 57 -68 158 -154 23
-21 57 -52 75 -70 17 -19 43 -40 57 -47 14 -7 41 -28 61 -46 19 -19 75 -61
125 -94 96 -64 403 -225 469 -245 22 -7 45 -16 50 -20 15 -11 253 -90 272 -90
9 0 24 -7 32 -14 9 -9 57 -20 111 -26 52 -7 121 -20 152 -31 102 -34 192 -42
398 -36 134 4 230 12 305 27 61 11 148 27 195 34 47 8 116 23 154 35 37 12 75
21 83 21 8 0 87 27 176 61 272 102 472 208 675 360 73 55 136 107 139 115 3 7
10 14 17 14 6 0 27 15 46 34 76 73 147 145 185 189 22 25 59 66 83 90 23 25
42 52 42 61 0 8 9 20 21 27 35 18 194 273 285 454 76 153 184 435 184 481 0
10 7 25 15 33 8 10 19 57 25 111 6 52 20 122 30 155 54 170 54 466 0 750 -10
55 -24 132 -29 172 -6 39 -15 83 -21 97 -5 15 -17 57 -25 94 -21 91 -127 365
-186 482 -26 52 -72 134 -101 181 -78 126 -241 349 -255 349 -7 0 -13 6 -13
13 -1 15 -45 67 -58 67 -5 0 -14 11 -20 24 -6 13 -37 46 -69 73 -56 47 -95 82
-158 142 -38 36 -196 153 -296 217 -178 117 -573 293 -719 320 -19 4 -42 13
-50 20 -9 7 -58 18 -109 24 -51 6 -119 19 -150 30 -116 39 -319 55 -501 40z
m343 -1119 c58 -11 168 -41 244 -67 143 -49 333 -137 333 -154 0 -6 5 -10 11
-10 29 0 178 -119 300 -240 199 -197 289 -343 382 -617 72 -207 82 -268 81
-493 0 -162 -3 -211 -21 -290 -27 -121 -98 -322 -153 -430 -48 -97 -152 -251
-211 -312 -21 -23 -39 -45 -39 -49 0 -5 -24 -27 -52 -50 -29 -23 -56 -47 -61
-54 -10 -19 -171 -143 -237 -182 -30 -19 -72 -38 -92 -44 -21 -5 -38 -14 -38
-19 0 -13 -45 -31 -220 -90 -320 -108 -612 -108 -941 0 -181 59 -333 137 -471
240 -192 144 -313 273 -383 408 -15 28 -31 52 -37 52 -14 0 -122 233 -161 350
-55 162 -68 239 -74 420 -6 212 10 322 77 521 48 145 141 349 159 349 5 0 11
8 14 18 2 9 32 56 66 104 79 109 262 287 366 356 44 28 87 59 96 67 26 25 219
112 334 151 222 74 525 102 728 65z"/>
</g>
</svg>
